HIERARCHY
ROOT Hips
{
	OFFSET 0.000000 83.214638 0.000000
	CHANNELS 6 Xposition Yposition Zposition Xrotation Yrotation Zrotation
	JOINT Pelvis
	{
		OFFSET 0.000000 0.000000 0.000000
		CHANNELS 3 Xrotation Yrotation Zrotation
		JOINT LeftUpLeg
		{
			OFFSET 8.479700 -4.795502 -0.379100
			CHANNELS 3 Xrotation Yrotation Zrotation
			JOINT LeftLeg
			{
				OFFSET 0.024144 -32.555107 0.112900
				CHANNELS 3 Xrotation Yrotation Zrotation
				JOINT LeftFoot
				{
					OFFSET -0.024144 -32.638630 -3.012600
					CHANNELS 3 Xrotation Yrotation Zrotation
					JOINT LeftToeBase
					{
						OFFSET 0.970200 -13.225400 11.864200
						CHANNELS 3 Xrotation Yrotation Zrotation
						End Site
						{
							OFFSET 0.000000 12.319262 0.000000
						}
					}
					JOINT LFootTongue
					{
						OFFSET 1.142400 -1.059800 6.665200
						CHANNELS 3 Xrotation Yrotation Zrotation
						End Site
						{
							OFFSET 0.000000 12.319262 0.000000
						}
					}
				}
				JOINT LeftPantLeg
				{
					OFFSET 0.918482 -16.533964 -2.284700
					CHANNELS 3 Xrotation Yrotation Zrotation
					End Site
					{
						OFFSET 0.350399 24.744368 0.000000
					}
				}
			}
		}
		JOINT RightUpLeg
		{
			OFFSET -8.479700 -4.795502 -0.379100
			CHANNELS 3 Xrotation Yrotation Zrotation
			JOINT RightLeg
			{
				OFFSET -0.023144 -32.555092 0.112900
				CHANNELS 3 Xrotation Yrotation Zrotation
				JOINT RightFoot
				{
					OFFSET 0.023144 -32.638641 -3.012700
					CHANNELS 3 Xrotation Yrotation Zrotation
					JOINT RightToeBase
					{
						OFFSET -0.970200 -13.225400 11.864200
						CHANNELS 3 Xrotation Yrotation Zrotation
						End Site
						{
							OFFSET 0.000000 12.319244 0.000000
						}
					}
					JOINT RFootTongue
					{
						OFFSET -1.142200 -1.059800 6.665200
						CHANNELS 3 Xrotation Yrotation Zrotation
						End Site
						{
							OFFSET 0.000000 12.319243 0.000000
						}
					}
				}
				JOINT RightPantLeg
				{
					OFFSET -0.919482 -16.533978 -2.284800
					CHANNELS 3 Xrotation Yrotation Zrotation
					End Site
					{
						OFFSET -0.350400 24.744419 0.000000
					}
				}
			}
		}
	}
	JOINT Spine
	{
		OFFSET 0.000000 7.722000 1.166200
		CHANNELS 3 Xrotation Yrotation Zrotation
		JOINT Spine1
		{
			OFFSET 0.000000 12.024101 0.248800
			CHANNELS 3 Xrotation Yrotation Zrotation
			JOINT Spine2
			{
				OFFSET 0.000000 11.502998 -0.491200
				CHANNELS 3 Xrotation Yrotation Zrotation
				JOINT Neck
				{
					OFFSET 0.000000 18.430702 -3.123100
					CHANNELS 3 Xrotation Yrotation Zrotation
					JOINT Head
					{
						OFFSET 0.000000 9.051102 1.034000
						CHANNELS 3 Xrotation Yrotation Zrotation
						JOINT HairB
						{
							OFFSET 0.208400 24.786102 24.822300
							CHANNELS 3 Xrotation Yrotation Zrotation
							End Site
							{
								OFFSET 0.000000 32.263779 0.000000
							}
						}
						JOINT HairA
						{
							OFFSET -7.081100 24.428299 23.196600
							CHANNELS 3 Xrotation Yrotation Zrotation
							End Site
							{
								OFFSET 0.000000 32.263779 0.000000
							}
						}
						JOINT Hat
						{
							OFFSET 16.728800 15.048294 -15.439601
							CHANNELS 3 Xrotation Yrotation Zrotation
							End Site
							{
								OFFSET 0.000000 32.263779 0.000000
							}
						}
					}
				}
				JOINT LeftShoulder
				{
					OFFSET 6.197800 13.665199 -4.064700
					CHANNELS 3 Xrotation Yrotation Zrotation
					JOINT LeftArm
					{
						OFFSET 7.778100 -0.187103 -1.709300
						CHANNELS 3 Xrotation Yrotation Zrotation
						JOINT LeftForeArm
						{
							OFFSET 22.049376 0.000000 0.000000
							CHANNELS 3 Xrotation Yrotation Zrotation
							JOINT LeftHand
							{
								OFFSET 23.009392 0.000000 0.000000
								CHANNELS 3 Xrotation Yrotation Zrotation
								JOINT LeftHandThumb1
								{
									OFFSET 3.507191 -2.063065 3.133727
									CHANNELS 3 Xrotation Yrotation Zrotation
									JOINT LeftHandThumb2
									{
										OFFSET 3.101337 -1.790558 1.790558
										CHANNELS 3 Xrotation Yrotation Zrotation
										JOINT LeftHandThumb3
										{
											OFFSET 3.058640 -1.765907 1.765906
											CHANNELS 3 Xrotation Yrotation Zrotation
											End Site
											{
												OFFSET -0.415260 3.926476 -0.049563
											}
										}
									}
								}
								JOINT LeftHandIndex1
								{
									OFFSET 11.334419 -0.901459 3.706815
									CHANNELS 3 Xrotation Yrotation Zrotation
									JOINT LeftHandIndex2
									{
										OFFSET 3.283112 0.000000 0.000000
										CHANNELS 3 Xrotation Yrotation Zrotation
										JOINT LeftHandIndex3
										{
											OFFSET 3.323853 0.000000 0.000000
											CHANNELS 3 Xrotation Yrotation Zrotation
											End Site
											{
												OFFSET -1.135597 3.097809 0.402452
											}
										}
									}
								}
								JOINT LeftHandMiddle1
								{
									OFFSET 11.335861 0.000000 0.000000
									CHANNELS 3 Xrotation Yrotation Zrotation
									JOINT LeftHandMiddle2
									{
										OFFSET 3.410492 0.000000 0.000000
										CHANNELS 3 Xrotation Yrotation Zrotation
										JOINT LeftHandMiddle3
										{
											OFFSET 3.312172 0.000000 0.000000
											CHANNELS 3 Xrotation Yrotation Zrotation
											End Site
											{
												OFFSET -1.150200 3.080154 0.400270
											}
										}
									}
								}
								JOINT LeftHandRing1
								{
									OFFSET 11.514786 -0.013176 -3.003090
									CHANNELS 3 Xrotation Yrotation Zrotation
									JOINT LeftHandRing2
									{
										OFFSET 3.053307 0.000000 0.000000
										CHANNELS 3 Xrotation Yrotation Zrotation
										JOINT LeftHandRing3
										{
											OFFSET 3.295807 0.000000 0.000000
											CHANNELS 3 Xrotation Yrotation Zrotation
											End Site
											{
												OFFSET -1.281006 3.013344 0.375733
											}
										}
									}
								}
								JOINT LeftHandPinky1
								{
									OFFSET 10.518692 -0.960396 -5.730441
									CHANNELS 3 Xrotation Yrotation Zrotation
									JOINT LeftHandPinky2
									{
										OFFSET 2.861649 0.000000 0.000000
										CHANNELS 3 Xrotation Yrotation Zrotation
										JOINT LeftHandPinky3
										{
											OFFSET 2.863380 0.000000 0.000000
											CHANNELS 3 Xrotation Yrotation Zrotation
											End Site
											{
												OFFSET -0.843597 2.711159 0.369971
											}
										}
									}
								}
							}
							JOINT LSleeve
							{
								OFFSET 6.676277 -0.344902 -1.011730
								CHANNELS 3 Xrotation Yrotation Zrotation
								End Site
								{
									OFFSET 0.000000 14.885353 0.000000
								}
							}
						}
					}
				}
				JOINT RightShoulder
				{
					OFFSET -6.197800 13.665199 -4.064700
					CHANNELS 3 Xrotation Yrotation Zrotation
					JOINT RightArm
					{
						OFFSET -7.778100 -0.187103 -1.709300
						CHANNELS 3 Xrotation Yrotation Zrotation
						JOINT RightForeArm
						{
							OFFSET -22.049376 0.000000 0.000000
							CHANNELS 3 Xrotation Yrotation Zrotation
							JOINT RightHand
							{
								OFFSET -23.009392 0.000000 0.000000
								CHANNELS 3 Xrotation Yrotation Zrotation
								JOINT RightHandThumb1
								{
									OFFSET -3.507191 -2.063065 3.133727
									CHANNELS 3 Xrotation Yrotation Zrotation
									JOINT RightHandThumb2
									{
										OFFSET -3.101337 -1.790558 1.790558
										CHANNELS 3 Xrotation Yrotation Zrotation
										JOINT RightHandThumb3
										{
											OFFSET -3.058640 -1.765907 1.765906
											CHANNELS 3 Xrotation Yrotation Zrotation
											End Site
											{
												OFFSET 0.415260 3.926476 -0.049563
											}
										}
									}
								}
								JOINT RightHandIndex1
								{
									OFFSET -11.334419 -0.901459 3.706815
									CHANNELS 3 Xrotation Yrotation Zrotation
									JOINT RightHandIndex2
									{
										OFFSET -3.283112 0.000000 0.000000
										CHANNELS 3 Xrotation Yrotation Zrotation
										JOINT RightHandIndex3
										{
											OFFSET -3.323853 0.000000 0.000000
											CHANNELS 3 Xrotation Yrotation Zrotation
											End Site
											{
												OFFSET 1.135597 3.097809 0.402452
											}
										}
									}
								}
								JOINT RightHandMiddle1
								{
									OFFSET -11.335861 0.000000 0.000000
									CHANNELS 3 Xrotation Yrotation Zrotation
									JOINT RightHandMiddle2
									{
										OFFSET -3.410492 0.000000 0.000000
										CHANNELS 3 Xrotation Yrotation Zrotation
										JOINT RightHandMiddle3
										{
											OFFSET -3.312172 0.000000 0.000000
											CHANNELS 3 Xrotation Yrotation Zrotation
											End Site
											{
												OFFSET 1.150200 3.080154 0.400270
											}
										}
									}
								}
								JOINT RightHandRing1
								{
									OFFSET -11.514786 -0.013176 -3.003090
									CHANNELS 3 Xrotation Yrotation Zrotation
									JOINT RightHandRing2
									{
										OFFSET -3.053307 0.000000 0.000000
										CHANNELS 3 Xrotation Yrotation Zrotation
										JOINT RightHandRing3
										{
											OFFSET -3.295807 0.000000 0.000000
											CHANNELS 3 Xrotation Yrotation Zrotation
											End Site
											{
												OFFSET 1.281006 3.013344 0.375733
											}
										}
									}
								}
								JOINT RightHandPinky1
								{
									OFFSET -10.518692 -0.960396 -5.730441
									CHANNELS 3 Xrotation Yrotation Zrotation
									JOINT RightHandPinky2
									{
										OFFSET -2.861649 0.000000 0.000000
										CHANNELS 3 Xrotation Yrotation Zrotation
										JOINT RightHandPinky3
										{
											OFFSET -2.863380 0.000000 0.000000
											CHANNELS 3 Xrotation Yrotation Zrotation
											End Site
											{
												OFFSET 0.843597 2.711159 0.369971
											}
										}
									}
								}
							}
							JOINT RSleeve
							{
								OFFSET -6.676277 -0.344902 -1.011730
								CHANNELS 3 Xrotation Yrotation Zrotation
								End Site
								{
									OFFSET 0.000000 14.885353 0.000000
								}
							}
						}
					}
				}
				JOINT Backpack
				{
					OFFSET 0.000000 -2.471497 36.677502
					CHANNELS 3 Xrotation Yrotation Zrotation
					End Site
					{
						OFFSET 0.000000 20.427315 0.000000
					}
				}
				JOINT Hood
				{
					OFFSET 0.000000 18.754097 -10.431000
					CHANNELS 3 Xrotation Yrotation Zrotation
					JOINT Hood1
					{
						OFFSET 0.000000 -5.011002 -7.685901
						CHANNELS 3 Xrotation Yrotation Zrotation
						End Site
						{
							OFFSET 0.000000 9.175140 0.000000
						}
					}
				}
				JOINT LHoodieString
				{
					OFFSET 5.250500 16.397697 3.089900
					CHANNELS 3 Xrotation Yrotation Zrotation
					JOINT LHoodieString1
					{
						OFFSET 0.257700 -6.364304 3.694600
						CHANNELS 3 Xrotation Yrotation Zrotation
						JOINT LHoodieString2
						{
							OFFSET 0.000000 -9.643799 2.679100
							CHANNELS 3 Xrotation Yrotation Zrotation
							End Site
							{
								OFFSET 0.000000 10.009018 0.000000
							}
						}
					}
				}
				JOINT RHoodieString
				{
					OFFSET -5.250500 16.397697 3.089900
					CHANNELS 3 Xrotation Yrotation Zrotation
					JOINT RHoodieString1
					{
						OFFSET -0.257700 -6.364304 3.694600
						CHANNELS 3 Xrotation Yrotation Zrotation
						JOINT RHoodieString2
						{
							OFFSET 0.000000 -9.643799 2.679100
							CHANNELS 3 Xrotation Yrotation Zrotation
							End Site
							{
								OFFSET 0.000000 10.009018 0.000000
							}
						}
					}
				}
			}
			JOINT LBackpack_Strap
			{
				OFFSET 15.223200 -7.719803 -6.610900
				CHANNELS 3 Xrotation Yrotation Zrotation
				End Site
				{
					OFFSET 0.000000 16.040596 0.000000
				}
			}
			JOINT RBackpack_Strap
			{
				OFFSET -15.223000 -7.719803 -6.610900
				CHANNELS 3 Xrotation Yrotation Zrotation
				End Site
				{
					OFFSET 0.000000 16.040596 0.000000
				}
			}
		}
	}
	JOINT BoyFacialAnim_Joint
	{
		OFFSET 1.000000 -82.208099 -1.550900
		CHANNELS 3 Xrotation Yrotation Zrotation
		End Site
		{
			OFFSET 0.000000 30.012791 0.000000
		}
	}
}
MOTION
Frames: 4
Frame Time: 0.033333
-0.104277 72.983887 -0.314583 -0.252400 -0.742080 -1.125600 0.000000 -0.000000 0.000000 -37.206127 1.605283 26.159367 48.930089 -4.755262 -8.392762 -11.645006 -8.193638 -9.511062 -0.000000 0.000000 -0.000000 -0.000000 0.000000 0.000000 0.000000 0.000001 0.000000 -40.355961 -11.991536 -22.322032 49.578963 5.931265 -2.720752 -10.780370 3.397712 12.151141 0.000000 0.000000 -0.000000 0.000000 0.000000 -0.000000 -0.000002 -0.000001 -0.000000 16.586571 0.268512 0.411050 20.119526 0.469852 0.900696 12.592134 0.364574 0.927906 2.973632 -0.915431 0.127267 -21.725479 3.041513 -1.451454 -0.000001 -0.000000 0.000000 -0.000001 -0.000000 0.000000 -0.000001 -0.000000 0.000000 20.442027 -17.633600 8.705349 -33.570165 -17.336501 -36.862251 -2.631975 -52.137843 -20.398285 -21.220728 9.297691 -12.724720 40.085755 -0.954274 -20.751231 5.156576 21.098494 19.107594 -0.000000 0.000000 0.000000 18.324894 -0.102589 -38.974624 -3.927031 -9.263175 -32.256668 -0.000000 -0.000001 -0.000002 -5.683300 14.855030 -33.525902 1.498363 3.738143 -43.673206 -0.000001 0.000001 -0.000001 -13.972624 19.864314 -31.046324 1.498373 3.738158 -43.673213 -0.000001 -0.000005 0.000001 -16.766403 2.966661 -36.666754 0.754038 2.756665 -30.590863 0.000001 -0.000001 0.000001 0.000002 0.000001 0.000001 18.320944 13.495043 -7.980870 -29.297195 10.275818 43.682540 -39.181705 60.008348 40.507291 -15.081136 -0.977409 14.319041 40.085742 0.954265 20.751238 5.156565 -21.098490 -19.107584 -0.000001 -0.000000 -0.000002 18.324896 0.102568 38.974613 -3.927019 9.263171 32.256671 0.000004 0.000003 0.000002 -5.683313 -14.855033 33.525898 1.498378 -3.738145 43.673206 0.000002 0.000002 -0.000002 -13.972630 -19.864326 31.046318 1.498365 -3.738151 43.673210 0.000001 -0.000001 0.000000 -16.766412 -2.966662 36.666740 0.754029 -2.756664 30.590853 -0.000002 0.000000 0.000002 0.000003 -0.000001 -0.000000 0.000000 0.000000 -0.000000 0.000000 0.000000 -0.000000 0.000000 0.000000 -0.000000 0.000000 0.000000 -0.000000 0.000000 0.000000 -0.000000 0.000000 -0.000000 -0.000000 0.000000 0.000000 -0.000000 0.000000 0.000000 -0.000000 0.000000 -0.000000 -0.000000 0.000001 -0.000000 -0.000000 0.000001 -0.000000 -0.000000 0.000000 -0.000000 0.000000 
-0.105923 73.123421 -0.272367 0.236430 -0.752469 -1.121235 0.000000 0.000000 0.000000 -37.445078 1.566598 25.622302 48.568977 -4.481558 -7.702286 -11.562847 -7.865986 -9.917325 -0.000000 0.000000 -0.000000 -0.000000 0.000000 -0.000000 -0.000000 -0.000001 0.000000 -39.981984 -10.743277 -21.798632 48.987018 4.977986 -2.104692 -10.590405 3.078018 12.392004 0.000000 -0.000000 -0.000000 0.000000 -0.000000 -0.000000 0.000001 0.000002 -0.000000 16.044840 0.579810 0.797927 19.452623 0.871320 1.233559 11.926852 0.722686 1.305528 4.266780 0.336172 1.879308 -24.342791 2.177303 -2.462449 -0.000000 0.000000 0.000000 -0.000000 0.000000 0.000000 -0.000000 0.000000 0.000000 21.302189 -18.878376 13.166133 -31.313569 -5.137689 -35.037207 -14.287981 -47.326750 -27.802888 -18.244460 2.807290 -19.069132 39.899052 -0.912448 -20.361542 5.078745 21.069513 19.274167 0.000000 0.000001 -0.000000 18.324656 -0.101988 -38.974716 -3.927022 -9.263161 -32.256675 -0.000000 0.000001 -0.000003 -5.683574 14.855019 -33.525898 1.498363 3.738149 -43.673206 0.000003 -0.000001 0.000000 -13.972889 19.864313 -31.046300 1.498361 3.738148 -43.673206 -0.000001 0.000000 -0.000002 -16.764821 2.966962 -36.666853 0.754037 2.756667 -30.590857 0.000002 -0.000000 0.000001 0.000001 0.000001 -0.000001 18.725358 13.314035 -9.634655 -9.332857 -1.853057 37.024379 -25.172466 57.643703 27.111186 -21.055327 9.554652 31.828999 39.859444 0.923413 18.111356 5.158189 -21.099421 -19.107353 0.000001 0.000001 0.000000 18.546557 -0.140339 39.742658 -3.762338 7.511057 36.166050 0.000001 -0.000000 -0.000000 -5.686834 -14.852007 33.487728 1.483729 -3.722779 43.448138 0.000001 0.000000 -0.000000 -13.970902 -19.864304 31.046536 1.490807 -3.730228 43.557110 -0.000000 0.000003 -0.000003 -20.137787 -6.149516 39.016093 1.475272 -4.857537 35.523035 -0.000000 0.000001 0.000000 0.000003 -0.000001 -0.000001 0.000001 -0.000000 0.000000 0.000001 -0.000000 0.000000 0.000001 -0.000000 0.000000 0.000001 -0.000000 0.000000 0.000001 -0.000000 -0.000000 -0.000001 -0.000000 -0.000000 0.000001 -0.000000 0.000000 0.000001 -0.000000 -0.000000 -0.000001 -0.000000 -0.000000 -0.000001 -0.000000 0.000000 -0.000001 -0.000000 0.000000 0.000000 0.000000 0.000000 
-0.121076 73.362534 -0.217934 0.860711 -0.760599 -1.114768 0.000000 0.000000 0.000000 -37.407450 1.032195 24.695232 47.687319 -5.254028 -7.041147 -11.339273 -5.769573 -10.170343 -0.000000 0.000000 -0.000000 -0.000000 0.000000 -0.000000 -0.000000 -0.000000 0.000000 -39.400178 -9.133512 -21.300807 48.023726 3.965855 -0.977021 -10.228941 2.573649 12.464924 -0.000000 -0.000000 -0.000000 -0.000000 -0.000000 -0.000000 0.000001 0.000000 -0.000001 15.281599 0.914834 1.229382 18.686609 1.283189 1.612281 11.162396 1.085420 1.729721 5.794011 1.794578 3.786288 -27.450795 1.156773 -3.564471 0.000001 0.000000 0.000000 0.000001 0.000000 0.000000 0.000001 0.000000 0.000000 20.932984 -16.981264 12.398897 -28.834767 4.492950 -26.241339 -21.668972 -45.184611 -31.243314 -18.150521 9.280340 -25.463567 39.710686 -0.871832 -19.972303 5.001286 21.040292 19.440434 0.000000 0.000001 0.000001 18.324375 -0.101316 -38.974832 -3.927041 -9.263164 -32.256668 0.000000 0.000001 -0.000003 -5.683866 14.855040 -33.525844 1.498374 3.738147 -43.673223 0.000002 -0.000001 0.000000 -13.973204 19.864331 -31.046239 1.498364 3.738144 -43.673213 0.000001 -0.000001 -0.000000 -16.763004 2.967323 -36.666945 0.754034 2.756660 -30.590870 0.000000 0.000001 -0.000002 -0.000002 0.000001 -0.000001 19.735244 13.738107 -13.669734 7.520054 -14.892961 40.444726 -12.419672 53.529743 14.661867 -30.214312 16.451836 45.740571 39.687999 0.875331 15.075913 5.160065 -21.100481 -19.107097 0.000001 0.000001 0.000000 18.805375 -0.409694 40.617738 -3.333752 5.590812 40.600174 -0.000001 0.000003 0.000002 -5.690617 -14.848999 33.449543 1.469154 -3.707362 43.223073 0.000000 0.000002 0.000000 -13.968943 -19.864278 31.046874 1.483251 -3.722295 43.440980 -0.000000 -0.000001 0.000002 -23.640002 -10.053367 41.462110 2.616955 -7.033698 41.240351 -0.000001 0.000001 0.000000 -0.000000 0.000000 -0.000002 -0.000001 0.000000 0.000000 -0.000001 0.000000 0.000000 -0.000001 0.000000 0.000000 -0.000001 0.000000 0.000000 -0.000001 0.000000 0.000000 -0.000004 -0.000000 -0.000000 -0.000001 0.000000 0.000000 -0.000001 0.000000 0.000000 -0.000004 -0.000000 -0.000000 -0.000003 0.000000 0.000000 -0.000003 0.000000 0.000000 0.000000 0.000000 0.000000 
-0.144261 73.426285 -0.157806 1.573375 -0.763319 -1.116461 -0.000000 -0.000000 0.000000 -37.802095 0.400909 23.875179 47.473329 -5.926854 -6.357307 -11.388908 -3.921246 -10.473296 -0.000000 -0.000000 -0.000000 -0.000000 -0.000000 -0.000000 -0.000001 -0.000000 0.000000 -39.248306 -7.347919 -21.069658 47.702301 2.541705 0.375087 -10.136796 2.574910 12.525452 -0.000000 0.000000 -0.000000 -0.000000 0.000000 -0.000000 -0.000000 -0.000001 -0.000001 14.954592 1.217042 1.534356 18.243124 1.658906 1.832938 10.719942 1.431797 1.993447 7.187852 3.207593 5.668289 -30.509284 0.168156 -4.649347 0.000001 -0.000000 -0.000001 0.000001 -0.000000 -0.000001 0.000001 -0.000000 -0.000001 21.216509 -12.834949 14.877506 -22.924381 9.819777 -19.103563 -27.688199 -38.381237 -32.895455 -16.137393 11.345138 -19.790294 39.520639 -0.832440 -19.583506 4.924028 21.010854 19.606500 -0.000004 0.000000 0.000001 18.324078 -0.100600 -38.974968 -3.927016 -9.263155 -32.256654 -0.000001 0.000000 -0.000003 -5.684188 14.855047 -33.525813 1.498366 3.738151 -43.673199 0.000001 0.000000 0.000000 -13.973540 19.864331 -31.046215 1.498369 3.738146 -43.673213 -0.000000 -0.000000 -0.000002 -16.761102 2.967693 -36.667054 0.754034 2.756662 -30.590853 -0.000000 0.000000 0.000002 0.000001 -0.000002 0.000002 21.162614 14.371404 -18.619000 22.487110 -22.962575 50.916028 -2.887637 45.489780 5.177484 -39.641930 20.231058 56.457029 39.604111 0.802198 11.837259 5.161982 -21.101598 -19.106853 0.000001 0.000001 -0.000000 19.086141 -0.685870 41.543123 -2.616567 3.676885 45.281641 -0.000000 -0.000002 0.000003 -5.694488 -14.845983 33.411318 1.454623 -3.691873 42.998018 -0.000000 -0.000000 0.000001 -13.966888 -19.864253 31.047141 1.475724 -3.714341 43.324891 0.000001 0.000000 0.000002 -26.965411 -14.457429 43.792509 4.160188 -9.035381 47.411205 0.000004 -0.000002 -0.000000 -0.000002 0.000000 -0.000001 0.000000 -0.000000 0.000000 0.000000 -0.000000 0.000000 0.000000 -0.000000 0.000000 0.000000 -0.000000 0.000000 0.000000 -0.000000 -0.000000 0.000000 -0.000000 -0.000000 0.000000 -0.000000 0.000000 0.000000 -0.000000 -0.000000 0.000000 -0.000000 -0.000000 0.000002 0.000000 0.000000 0.000002 0.000000 0.000000 -0.000000 -0.000000 0.000000 
